<svg xmlns="http://www.w3.org/2000/svg" version="1.1" xmlns:xlink="http://www.w3.org/1999/xlink" xmlns:svgjs="http://svgjs.dev/svgjs" width="1500" height="1500" viewBox="0 0 1500 1500"><rect width="1500" height="1500" fill="#ffffff"></rect><g transform="matrix(0.6666666666666666,0,0,0.6666666666666666,249.19286348258908,218.43076923076922)"><svg viewBox="0 0 232 247" data-background-color="#ffffff" preserveAspectRatio="xMidYMid meet" height="1596" width="1500" xmlns="http://www.w3.org/2000/svg" xmlns:xlink="http://www.w3.org/1999/xlink"><g id="tight-bounds" transform="matrix(1,0,0,1,0.1872556720393277,-0.09999999999999432)"><svg viewBox="0 0 231.62548865592134 247.2" height="247.2" width="231.62548865592134"><g><svg viewBox="0 0 395.52000000000004 422.1147878299382" height="247.2" width="231.62548865592134"><g transform="matrix(1,0,0,1,0,270.2831716547947)"><svg viewBox="0 0 395.52000000000004 151.8316161751435" height="151.8316161751435" width="395.52000000000004"><g id="textblocktransform"><svg viewBox="0 0 395.52000000000004 151.8316161751435" height="151.8316161751435" width="395.52000000000004" id="textblock"><g><svg viewBox="0 0 395.52000000000004 106.47196767174385" height="106.47196767174385" width="395.52000000000004"><g transform="matrix(1,0,0,1,0,0)"><svg width="395.52000000000004" viewBox="1.9 -32.75 160.82999999999998 43.30000000000001" height="106.47196767174385" data-palette-color="#a437db"><path d="M16.85-30.8L16.85-27.6 7.2-27.6 7.2-19.35 13.65-19.35 13.65-16.15 7.2-16.15 7.2-5.3Q9.45-3.8 11.75-3.25 14.05-2.7 16.85-2.7L16.85-2.7 16.65 0.5Q11.8 0.5 8.1-1.1 4.4-2.7 1.9-4.9L1.9-4.9 3.7-7.2 3.7-27.6 2.7-30.8 16.85-30.8ZM23.35-19.85L23.6-23Q25.7-23 27.8-22.63 29.9-22.25 31.65-21.33 33.4-20.4 34.45-18.68 35.5-16.95 35.5-14.25L35.5-14.25 35.5-4.25 36.85-1.95Q34.55-0.65 32.27-0.08 30 0.5 28.1 0.5L28.1 0.5Q25.65 0.5 24.15-0.13 22.65-0.75 21.8-1.55L21.8-1.55Q21-2.4 20.4-3.68 19.8-4.95 19.8-6.55L19.8-6.55Q19.8-9.05 20.85-10.68 21.9-12.3 23.67-13.2 25.45-14.1 27.67-14.48 29.9-14.85 32.3-14.85L32.3-14.85Q32.2-16.5 31.32-17.48 30.45-18.45 29.12-18.95 27.8-19.45 26.3-19.63 24.8-19.8 23.35-19.85L23.35-19.85ZM32.3-3.35L32.3-11.85Q31.1-11.85 29.55-11.7 28-11.55 26.55-11.08 25.1-10.6 24.15-9.6 23.2-8.6 23.2-6.9L23.2-6.9Q23.2-5.75 23.55-4.98 23.9-4.2 24.35-3.8L24.35-3.8Q25.15-3 26.17-2.75 27.2-2.5 28.2-2.5L28.2-2.5Q29.4-2.5 30.4-2.75 31.4-3 32.3-3.35L32.3-3.35ZM54.95-21.2L53.65-18.4Q52.25-19.1 50.92-19.5 49.6-19.9 47.9-19.9L47.9-19.9Q46.25-19.9 45.07-19.25 43.9-18.6 43.9-16.85L43.9-16.85Q43.9-15.5 44.8-14.73 45.7-13.95 47-13.3L47-13.3 50.3-11.7Q52.5-10.65 53.75-9.28 55-7.9 55-5.9L55-5.9 55-4.75 56.7-2.7Q54.55-0.7 52.15-0.1 49.75 0.5 47.55 0.5L47.55 0.5Q45.4 0.5 43.65 0.13 41.9-0.25 40.7-0.75L40.7-0.75 40.7-3.95Q42.1-3.35 43.62-2.93 45.15-2.5 47.45-2.5L47.45-2.5Q48.8-2.5 49.97-2.8 51.15-3.1 51.8-3.6L51.8-3.6 51.8-4.6Q51.8-6.1 51.17-7.08 50.55-8.05 48.65-9L48.65-9 44.8-10.9Q43.15-11.75 41.92-13.05 40.7-14.35 40.7-16.85L40.7-16.85Q40.7-19.65 42.62-21.33 44.55-23 47.9-23L47.9-23Q50.05-23 51.82-22.5 53.6-22 54.95-21.2L54.95-21.2ZM58.54-22.35L61.69-23 65.44-7Q65.84-5.3 66.57-3.95 67.29-2.6 68.94-2.5L68.94-2.5Q69.09-2.5 69.27-2.5 69.44-2.5 69.64-2.55L69.64-2.55 74.39-23 77.54-22.35 69.84 10.55 66.74 9.85 68.89 0.5Q66.24 0.4 64.69-1.25 63.14-2.9 62.34-6.25L62.34-6.25 58.54-22.35ZM106.84-29.85L105.59-26.9Q104.34-27.55 103.14-27.83 101.94-28.1 100.94-28.1L100.94-28.1Q98.29-28.1 96.96-26.9 95.64-25.7 95.21-23.73 94.79-21.75 94.79-19.35L94.79-19.35 94.79-4.25Q96.19-3.4 97.59-3.05 98.99-2.7 100.74-2.7L100.74-2.7Q102.44-2.7 103.64-3.03 104.84-3.35 106.29-4.2L106.29-4.2 107.74-1.05Q106.49-0.4 104.64 0.05 102.79 0.5 100.54 0.5L100.54 0.5Q99.34 0.5 97.49 0.23 95.64-0.05 93.56-0.93 91.49-1.8 89.49-3.55L89.49-3.55 91.29-5.85 91.29-19.25Q91.29-22.55 92.09-25.3 92.89-28.05 94.96-29.68 97.04-31.3 100.84-31.3L100.84-31.3Q102.64-31.3 104.04-30.95 105.44-30.6 106.84-29.85L106.84-29.85ZM115.04-32.75L115.04-22.35Q115.94-22.65 117.01-22.83 118.09-23 119.24-23L119.24-23Q120.49-23 121.99-22.73 123.49-22.45 124.84-21.63 126.19-20.8 126.99-19.05L126.99-19.05Q127.34-18.3 127.54-17.25 127.74-16.2 127.81-14.53 127.89-12.85 127.89-10.15L127.89-10.15 127.89 0 124.69 0 124.69-10.25Q124.69-13.55 124.54-15.28 124.39-17 123.74-17.95L123.74-17.95Q123.34-18.65 122.26-19.33 121.19-20 119.04-20L119.04-20Q117.79-20 116.81-19.8 115.84-19.6 115.04-19.25L115.04-19.25 115.04 0 111.84 0 111.84-29.6 110.84-32.75 115.04-32.75ZM135.78-19.85L136.03-23Q138.13-23 140.23-22.63 142.33-22.25 144.08-21.33 145.83-20.4 146.88-18.68 147.93-16.95 147.93-14.25L147.93-14.25 147.93-4.25 149.28-1.95Q146.98-0.65 144.71-0.08 142.43 0.5 140.53 0.5L140.53 0.5Q138.08 0.5 136.58-0.13 135.08-0.75 134.23-1.55L134.23-1.55Q133.43-2.4 132.83-3.68 132.23-4.95 132.23-6.55L132.23-6.55Q132.23-9.05 133.28-10.68 134.33-12.3 136.11-13.2 137.88-14.1 140.11-14.48 142.33-14.85 144.73-14.85L144.73-14.85Q144.63-16.5 143.76-17.48 142.88-18.45 141.56-18.95 140.23-19.45 138.73-19.63 137.23-19.8 135.78-19.85L135.78-19.85ZM144.73-3.35L144.73-11.85Q143.53-11.85 141.98-11.7 140.43-11.55 138.98-11.08 137.53-10.6 136.58-9.6 135.63-8.6 135.63-6.9L135.63-6.9Q135.63-5.75 135.98-4.98 136.33-4.2 136.78-3.8L136.78-3.8Q137.58-3 138.61-2.75 139.63-2.5 140.63-2.5L140.63-2.5Q141.83-2.5 142.83-2.75 143.83-3 144.73-3.35L144.73-3.35ZM152.48-28.5L156.68-28.5 156.68-22.5 161.43-22.5 161.43-19.4 156.68-19.4 156.68-12.95Q156.68-11.55 156.76-9.8 156.83-8.05 157.78-6.45L157.78-6.45Q158.48-5.3 159.96-4.05 161.43-2.8 162.73-2L162.73-2 160.83 0.5Q159.38-0.3 157.91-1.5 156.43-2.7 155.48-4L155.48-4Q154.13-5.9 153.81-7.83 153.48-9.75 153.48-11.65L153.48-11.65 153.48-25.35 152.48-28.5Z" opacity="1" transform="matrix(1,0,0,1,0,0)" fill="#000000" class="wordmark-text-0" data-fill-palette-color="primary" id="text-0"></path></svg></g></svg></g><g transform="matrix(1,0,0,1,75.54432000000001,131.60744391181845)"><svg viewBox="0 0 244.43136 20.22417226332504" height="20.22417226332504" width="244.43136"><g transform="matrix(1,0,0,1,0,0)"><svg width="244.43136" viewBox="4.85 -37.8 582.48 48.199999999999996" height="20.22417226332504" data-palette-color="#b19dd0"><path d="M23.05 0L6.4 0Q4.85 0 4.85-1.5L4.85-1.5 4.85-34Q4.85-34.55 5.33-34.83 5.8-35.1 6.9-35.1L6.9-35.1 7.3-35.1Q8.45-35.1 8.9-34.83 9.35-34.55 9.35-34L9.35-34 9.35-3.8 23.05-3.8Q24.05-3.8 24.05-2.3L24.05-2.3 24.05-1.5Q24.05 0 23.05 0L23.05 0ZM38.85 0.3L38.85 0.3Q33.1 0.3 30.02-2.7 26.95-5.7 26.95-12.95L26.95-12.95Q26.95-17.3 28.3-20.3 29.65-23.3 32.27-24.88 34.9-26.45 38.65-26.45L38.65-26.45Q42.05-26.45 44.32-24.98 46.6-23.5 47.72-20.6 48.85-17.7 48.85-13.5L48.85-13.5Q48.85-13.05 48.6-12.55 48.35-12.05 47.95-11.7 47.55-11.35 47.1-11.35L47.1-11.35 31.35-11.35Q31.45-7.2 33.3-5.25 35.15-3.3 38.95-3.3L38.95-3.3Q41.35-3.3 43.02-3.85 44.7-4.4 45.67-4.95 46.65-5.5 46.9-5.5L46.9-5.5Q47.25-5.5 47.52-5.08 47.8-4.65 48-4.1 48.2-3.55 48.2-3.15L48.2-3.15Q48.2-2.7 47.47-2.13 46.75-1.55 45.47-0.98 44.2-0.4 42.5-0.05 40.8 0.3 38.85 0.3ZM31.35-14.95L31.35-14.95 44.55-14.95Q44.55-18.9 42.9-20.88 41.25-22.85 38.2-22.85L38.2-22.85Q36-22.85 34.5-21.88 33-20.9 32.2-19.15 31.4-17.4 31.35-14.95ZM62.55 0.3L62.55 0.3Q60.55 0.3 59.22-0.45 57.9-1.2 57.22-2.68 56.55-4.15 56.55-6.3L56.55-6.3 56.55-22.55 54.05-22.55Q53.05-22.55 53.05-24.05L53.05-24.05 53.05-24.65Q53.05-26.15 54.05-26.15L54.05-26.15 56.55-26.15 57.15-31.4Q57.25-31.95 57.62-32.23 58-32.5 58.7-32.5L58.7-32.5 59.1-32.5Q60.1-32.5 60.47-32.23 60.85-31.95 60.85-31.4L60.85-31.4 60.85-26.15 65.1-26.15Q66.1-26.15 66.1-24.65L66.1-24.65 66.1-24.05Q66.1-22.55 65.1-22.55L65.1-22.55 60.85-22.55 60.85-6.3Q60.85-4.7 61.37-4.05 61.9-3.4 63.2-3.4L63.2-3.4Q64.35-3.4 64.85-3.65 65.35-3.9 65.7-3.9L65.7-3.9Q65.95-3.9 66.12-3.58 66.3-3.25 66.37-2.8 66.45-2.35 66.47-1.95 66.5-1.55 66.5-1.4L66.5-1.4Q66.5-0.9 65.82-0.5 65.15-0.1 64.22 0.1 63.3 0.3 62.55 0.3ZM73.04-23.6L72.99-23.6Q72.49-23.6 72.22-23.75 71.94-23.9 71.89-24.2L71.89-24.2 70.79-33.8Q70.74-34.5 71.24-34.8 71.74-35.1 72.79-35.1L72.79-35.1 73.29-35.1Q74.34-35.1 74.87-34.8 75.39-34.5 75.29-33.8L75.29-33.8 74.14-24.2Q74.09-23.9 73.82-23.75 73.54-23.6 73.04-23.6L73.04-23.6ZM87.74 0.45L87.74 0.45Q86.04 0.45 84.59 0.13 83.14-0.2 82.06-0.7 80.99-1.2 80.39-1.73 79.79-2.25 79.79-2.7L79.79-2.7Q79.79-3 80.09-3.6 80.39-4.2 80.79-4.7 81.19-5.2 81.54-5.2L81.54-5.2Q81.74-5.2 82.44-4.7 83.14-4.2 84.42-3.7 85.69-3.2 87.44-3.2L87.44-3.2Q89.84-3.2 91.09-4.15 92.34-5.1 92.34-6.9L92.34-6.9Q92.34-8.25 91.69-9.08 91.04-9.9 89.92-10.45 88.79-11 87.34-11.45L87.34-11.45Q86.04-11.9 84.79-12.45 83.54-13 82.54-13.85 81.54-14.7 80.97-16 80.39-17.3 80.39-19.25L80.39-19.25Q80.39-21.35 81.47-23 82.54-24.65 84.42-25.58 86.29-26.5 88.69-26.5L88.69-26.5Q89.99-26.5 91.17-26.33 92.34-26.15 93.27-25.85 94.19-25.55 94.74-25.15 95.29-24.75 95.29-24.35L95.29-24.35Q95.29-23.95 95.02-23.3 94.74-22.65 94.39-22.15 94.04-21.65 93.69-21.65L93.69-21.65Q93.49-21.65 92.34-22.3 91.19-22.95 89.14-22.95L89.14-22.95Q87.29-22.95 85.99-22.08 84.69-21.2 84.69-19.6L84.69-19.6Q84.69-18.65 85.04-18 85.39-17.35 86.24-16.82 87.09-16.3 88.59-15.8L88.59-15.8Q90.29-15.25 91.74-14.55 93.19-13.85 94.29-12.88 95.39-11.9 95.99-10.55 96.59-9.2 96.59-7.35L96.59-7.35Q96.59-5.1 95.42-3.35 94.24-1.6 92.24-0.58 90.24 0.45 87.74 0.45ZM129.44 0.3L129.44 0.3Q121.24 0.3 117.29-4.03 113.34-8.35 113.34-17.5L113.34-17.5Q113.34-26.45 117.44-30.88 121.54-35.3 129.54-35.3L129.54-35.3Q131.24-35.3 132.84-35.05 134.44-34.8 135.74-34.4 137.04-34 137.89-33.5L137.89-33.5Q138.44-33.15 138.76-32.83 139.09-32.5 139.09-32.2L139.09-32.2Q139.09-31.9 138.96-31.48 138.84-31.05 138.61-30.63 138.39-30.2 138.11-29.93 137.84-29.65 137.54-29.65L137.54-29.65Q137.14-29.65 136.16-30.13 135.19-30.6 133.59-31.05 131.99-31.5 129.64-31.5L129.64-31.5Q125.64-31.5 123.04-30.05 120.44-28.6 119.16-25.5 117.89-22.4 117.89-17.45L117.89-17.45Q117.89-12.65 119.14-9.58 120.39-6.5 122.96-5 125.54-3.5 129.44-3.5L129.44-3.5Q131.39-3.5 132.91-3.85 134.44-4.2 135.56-4.63 136.69-5.05 137.39-5.4 138.09-5.75 138.34-5.75L138.34-5.75Q138.64-5.75 138.91-5.45 139.19-5.15 139.39-4.75 139.59-4.35 139.69-3.95 139.79-3.55 139.79-3.35L139.79-3.35Q139.79-2.9 139.36-2.48 138.94-2.05 138.19-1.65L138.19-1.65Q137.29-1.15 135.96-0.7 134.64-0.25 132.99 0.03 131.34 0.3 129.44 0.3ZM148.28 0.1L147.88 0.1Q146.78 0.1 146.36-0.2 145.93-0.5 145.93-1L145.93-1 145.93-36.5Q145.93-37.05 146.36-37.33 146.78-37.6 147.88-37.6L147.88-37.6 148.28-37.6Q149.38-37.6 149.81-37.33 150.23-37.05 150.23-36.5L150.23-36.5 150.23-23Q151.13-24.05 152.31-24.83 153.48-25.6 154.86-26.03 156.23-26.45 157.58-26.45L157.58-26.45Q160.13-26.45 161.96-25.48 163.78-24.5 164.76-22.7 165.73-20.9 165.73-18.35L165.73-18.35 165.73-1Q165.73-0.5 165.31-0.2 164.88 0.1 163.78 0.1L163.78 0.1 163.38 0.1Q162.28 0.1 161.86-0.2 161.43-0.5 161.43-1L161.43-1 161.43-17.95Q161.43-20.35 160.16-21.58 158.88-22.8 156.38-22.8L156.38-22.8Q155.18-22.8 154.03-22.38 152.88-21.95 151.91-21.18 150.93-20.4 150.23-19.3L150.23-19.3 150.23-1Q150.23-0.5 149.81-0.2 149.38 0.1 148.28 0.1L148.28 0.1ZM180.68 0.3L180.68 0.3Q177.03 0.3 174.58-1.53 172.13-3.35 172.13-7.2L172.13-7.2Q172.13-9.75 172.98-11.5 173.83-13.25 175.75-14.3 177.68-15.35 180.86-15.83 184.03-16.3 188.63-16.3L188.63-16.3 188.63-18.65Q188.63-19.8 188.13-20.75 187.63-21.7 186.46-22.28 185.28-22.85 183.23-22.85L183.23-22.85Q180.98-22.85 179.25-22.35 177.53-21.85 176.46-21.35 175.38-20.85 175.03-20.85L175.03-20.85Q174.78-20.85 174.56-21.1 174.33-21.35 174.13-21.78 173.93-22.2 173.81-22.65 173.68-23.1 173.68-23.45L173.68-23.45Q173.68-23.85 174.53-24.35 175.38-24.85 176.81-25.33 178.23-25.8 179.96-26.13 181.68-26.45 183.43-26.45L183.43-26.45Q185.68-26.45 187.46-25.93 189.23-25.4 190.43-24.38 191.63-23.35 192.28-21.9 192.93-20.45 192.93-18.6L192.93-18.6 192.93-7.5Q192.93-5.45 193.06-4.15 193.18-2.85 193.31-2.13 193.43-1.4 193.43-1.05L193.43-1.05Q193.43-0.8 193.13-0.6 192.83-0.4 192.38-0.28 191.93-0.15 191.43-0.08 190.93 0 190.53 0L190.53 0Q190.08 0 189.83-0.33 189.58-0.65 189.38-1.43 189.18-2.2 188.93-3.45L188.93-3.45Q188.03-2.4 186.81-1.55 185.58-0.7 184.06-0.2 182.53 0.3 180.68 0.3ZM180.88-3.35L180.88-3.35Q182.68-3.35 184.06-3.85 185.43-4.35 186.56-5.13 187.68-5.9 188.63-6.8L188.63-6.8 188.63-12.7Q184.93-12.7 182.58-12.43 180.23-12.15 178.93-11.55 177.63-10.95 177.13-9.93 176.63-8.9 176.63-7.45L176.63-7.45Q176.63-5.45 177.71-4.4 178.78-3.35 180.88-3.35ZM208.33 0.3L208.33 0.3Q206.33 0.3 205-0.45 203.68-1.2 203-2.68 202.33-4.15 202.33-6.3L202.33-6.3 202.33-22.55 199.83-22.55Q198.83-22.55 198.83-24.05L198.83-24.05 198.83-24.65Q198.83-26.15 199.83-26.15L199.83-26.15 202.33-26.15 202.93-31.4Q203.03-31.95 203.4-32.23 203.78-32.5 204.48-32.5L204.48-32.5 204.88-32.5Q205.88-32.5 206.25-32.23 206.63-31.95 206.63-31.4L206.63-31.4 206.63-26.15 210.88-26.15Q211.88-26.15 211.88-24.65L211.88-24.65 211.88-24.05Q211.88-22.55 210.88-22.55L210.88-22.55 206.63-22.55 206.63-6.3Q206.63-4.7 207.15-4.05 207.68-3.4 208.98-3.4L208.98-3.4Q210.13-3.4 210.63-3.65 211.13-3.9 211.48-3.9L211.48-3.9Q211.73-3.9 211.9-3.58 212.08-3.25 212.15-2.8 212.23-2.35 212.25-1.95 212.28-1.55 212.28-1.4L212.28-1.4Q212.28-0.9 211.6-0.5 210.93-0.1 210 0.1 209.08 0.3 208.33 0.3ZM233.77 0.1L233.37 0.1Q232.27 0.1 231.85-0.2 231.42-0.5 231.42-1L231.42-1 231.42-22.55 228.87-22.55Q227.92-22.55 227.92-24.05L227.92-24.05 227.92-24.65Q227.92-26.15 228.87-26.15L228.87-26.15 231.42-26.15 231.42-31.2Q231.42-33.4 232.1-34.85 232.77-36.3 234.1-37.05 235.42-37.8 237.42-37.8L237.42-37.8Q238.17-37.8 239.1-37.6 240.02-37.4 240.7-37.02 241.37-36.65 241.37-36.1L241.37-36.1Q241.37-35.95 241.35-35.55 241.32-35.15 241.25-34.7 241.17-34.25 241-33.93 240.82-33.6 240.57-33.6L240.57-33.6Q240.22-33.6 239.72-33.85 239.22-34.1 238.07-34.1L238.07-34.1Q236.77-34.1 236.25-33.5 235.72-32.9 235.72-31.2L235.72-31.2 235.72-26.15 239.97-26.15Q240.97-26.15 240.97-24.65L240.97-24.65 240.97-24.05Q240.97-22.55 239.97-22.55L239.97-22.55 235.72-22.55 235.72-1Q235.72-0.5 235.3-0.2 234.87 0.1 233.77 0.1L233.77 0.1ZM248.97 0.1L248.77 0.1Q247.72 0.1 247.25-0.2 246.77-0.5 246.77-1L246.77-1 246.77-18.65Q246.77-20.7 246.65-22 246.52-23.3 246.4-24.05 246.27-24.8 246.27-25.1L246.27-25.1Q246.27-25.35 246.57-25.55 246.87-25.75 247.32-25.88 247.77-26 248.27-26.05 248.77-26.1 249.17-26.1L249.17-26.1Q249.62-26.1 249.9-25.78 250.17-25.45 250.4-24.7 250.62-23.95 250.82-22.7L250.82-22.7Q251.67-24 252.75-24.83 253.82-25.65 255.07-26.05 256.32-26.45 257.77-26.45L257.77-26.45Q258.62-26.45 259.05-26.05 259.47-25.65 259.47-24.85L259.47-24.85Q259.47-24.3 259.39-23.78 259.32-23.25 259.17-22.85 259.02-22.45 258.85-22.2 258.67-21.95 258.42-21.95L258.42-21.95Q258.07-21.95 257.55-22.15 257.02-22.35 255.87-22.35L255.87-22.35Q254.17-22.35 252.84-21.4 251.52-20.45 251.07-18.8L251.07-18.8 251.07-1Q251.07-0.5 250.57-0.2 250.07 0.1 248.97 0.1L248.97 0.1ZM274.22 0.3L274.22 0.3Q268.47 0.3 265.39-2.7 262.32-5.7 262.32-12.95L262.32-12.95Q262.32-17.3 263.67-20.3 265.02-23.3 267.64-24.88 270.27-26.45 274.02-26.45L274.02-26.45Q277.42-26.45 279.69-24.98 281.97-23.5 283.09-20.6 284.22-17.7 284.22-13.5L284.22-13.5Q284.22-13.05 283.97-12.55 283.72-12.05 283.32-11.7 282.92-11.35 282.47-11.35L282.47-11.35 266.72-11.35Q266.82-7.2 268.67-5.25 270.52-3.3 274.32-3.3L274.32-3.3Q276.72-3.3 278.39-3.85 280.07-4.4 281.04-4.95 282.02-5.5 282.27-5.5L282.27-5.5Q282.62-5.5 282.89-5.08 283.17-4.65 283.37-4.1 283.57-3.55 283.57-3.15L283.57-3.15Q283.57-2.7 282.84-2.13 282.12-1.55 280.84-0.98 279.57-0.4 277.87-0.05 276.17 0.3 274.22 0.3ZM266.72-14.95L266.72-14.95 279.92-14.95Q279.92-18.9 278.27-20.88 276.62-22.85 273.57-22.85L273.57-22.85Q271.37-22.85 269.87-21.88 268.37-20.9 267.57-19.15 266.77-17.4 266.72-14.95ZM300.66 0.3L300.66 0.3Q294.91 0.3 291.84-2.7 288.76-5.7 288.76-12.95L288.76-12.95Q288.76-17.3 290.12-20.3 291.46-23.3 294.09-24.88 296.71-26.45 300.46-26.45L300.46-26.45Q303.87-26.45 306.14-24.98 308.41-23.5 309.54-20.6 310.66-17.7 310.66-13.5L310.66-13.5Q310.66-13.05 310.41-12.55 310.16-12.05 309.76-11.7 309.37-11.35 308.91-11.35L308.91-11.35 293.16-11.35Q293.26-7.2 295.12-5.25 296.96-3.3 300.76-3.3L300.76-3.3Q303.16-3.3 304.84-3.85 306.51-4.4 307.49-4.95 308.46-5.5 308.71-5.5L308.71-5.5Q309.06-5.5 309.34-5.08 309.62-4.65 309.81-4.1 310.01-3.55 310.01-3.15L310.01-3.15Q310.01-2.7 309.29-2.13 308.56-1.55 307.29-0.98 306.01-0.4 304.31-0.05 302.62 0.3 300.66 0.3ZM293.16-14.95L293.16-14.95 306.37-14.95Q306.37-18.9 304.71-20.88 303.06-22.85 300.01-22.85L300.01-22.85Q297.81-22.85 296.31-21.88 294.81-20.9 294.01-19.15 293.21-17.4 293.16-14.95ZM323.06 0.3L323.06 0.3Q321.06 0.3 319.74-0.45 318.41-1.2 317.74-2.68 317.06-4.15 317.06-6.3L317.06-6.3 317.06-36.5Q317.06-37.05 317.49-37.33 317.91-37.6 319.01-37.6L319.01-37.6 319.41-37.6Q320.51-37.6 320.94-37.33 321.36-37.05 321.36-36.5L321.36-36.5 321.36-6.3Q321.36-4.6 321.89-4 322.41-3.4 323.71-3.4L323.71-3.4Q324.86-3.4 325.36-3.65 325.86-3.9 326.21-3.9L326.21-3.9Q326.46-3.9 326.64-3.58 326.81-3.25 326.89-2.8 326.96-2.35 326.99-1.95 327.01-1.55 327.01-1.4L327.01-1.4Q327.01-0.9 326.34-0.5 325.66-0.1 324.74 0.1 323.81 0.3 323.06 0.3ZM335.06 10.4L334.66 10.4Q333.86 10.4 333.44 10.18 333.01 9.95 333.01 9.6L333.01 9.6Q333.01 9.5 333.04 9.38 333.06 9.25 333.26 8.75L333.26 8.75 338.16-3 337.76 0.25 328.51-24.75Q328.46-24.85 328.41-25.05 328.36-25.25 328.36-25.4L328.36-25.4Q328.36-25.8 328.88-26.03 329.41-26.25 330.51-26.25L330.51-26.25 330.76-26.25Q331.51-26.25 332.06-26.08 332.61-25.9 332.76-25.45L332.76-25.45 339.41-5.95 339.61-5.95 346.46-25.45Q346.61-25.9 347.16-26.08 347.71-26.25 348.51-26.25L348.51-26.25 348.66-26.25Q349.66-26.25 350.08-26.03 350.51-25.8 350.51-25.4L350.51-25.4Q350.51-25.25 350.49-25.1 350.46-24.95 350.36-24.7L350.36-24.7 337.41 9.35Q337.21 9.9 336.58 10.15 335.96 10.4 335.06 10.4L335.06 10.4ZM374.36 0.3L374.36 0.3Q370.71 0.3 368.25-1.53 365.81-3.35 365.81-7.2L365.81-7.2Q365.81-9.75 366.66-11.5 367.5-13.25 369.43-14.3 371.36-15.35 374.53-15.83 377.71-16.3 382.31-16.3L382.31-16.3 382.31-18.65Q382.31-19.8 381.81-20.75 381.31-21.7 380.13-22.28 378.96-22.85 376.91-22.85L376.91-22.85Q374.66-22.85 372.93-22.35 371.21-21.85 370.13-21.35 369.06-20.85 368.71-20.85L368.71-20.85Q368.46-20.85 368.23-21.1 368-21.35 367.81-21.78 367.61-22.2 367.48-22.65 367.36-23.1 367.36-23.45L367.36-23.45Q367.36-23.85 368.21-24.35 369.06-24.85 370.48-25.33 371.91-25.8 373.63-26.13 375.36-26.45 377.11-26.45L377.11-26.45Q379.36-26.45 381.13-25.93 382.91-25.4 384.11-24.38 385.31-23.35 385.96-21.9 386.61-20.45 386.61-18.6L386.61-18.6 386.61-7.5Q386.61-5.45 386.73-4.15 386.86-2.85 386.98-2.13 387.11-1.4 387.11-1.05L387.11-1.05Q387.11-0.8 386.81-0.6 386.5-0.4 386.06-0.28 385.61-0.15 385.11-0.08 384.61 0 384.21 0L384.21 0Q383.75 0 383.5-0.33 383.25-0.65 383.06-1.43 382.86-2.2 382.61-3.45L382.61-3.45Q381.71-2.4 380.48-1.55 379.25-0.7 377.73-0.2 376.21 0.3 374.36 0.3ZM374.56-3.35L374.56-3.35Q376.36-3.35 377.73-3.85 379.11-4.35 380.23-5.13 381.36-5.9 382.31-6.8L382.31-6.8 382.31-12.7Q378.61-12.7 376.25-12.43 373.91-12.15 372.61-11.55 371.31-10.95 370.81-9.93 370.31-8.9 370.31-7.45L370.31-7.45Q370.31-5.45 371.38-4.4 372.46-3.35 374.56-3.35ZM397.45 0.1L397.05 0.1Q395.95 0.1 395.53-0.2 395.1-0.5 395.1-1L395.1-1 395.1-18.65Q395.1-20.7 394.98-22 394.85-23.3 394.73-24.05 394.6-24.8 394.6-25.1L394.6-25.1Q394.6-25.35 394.9-25.55 395.2-25.75 395.65-25.88 396.1-26 396.6-26.05 397.1-26.1 397.5-26.1L397.5-26.1Q397.95-26.1 398.2-25.78 398.45-25.45 398.65-24.73 398.85-24 399.1-22.7L399.1-22.7Q400.1-23.9 401.35-24.73 402.6-25.55 403.98-26 405.35-26.45 406.75-26.45L406.75-26.45Q409.3-26.45 411.13-25.48 412.95-24.5 413.93-22.7 414.9-20.9 414.9-18.35L414.9-18.35 414.9-1Q414.9-0.5 414.48-0.2 414.05 0.1 412.95 0.1L412.95 0.1 412.55 0.1Q411.45 0.1 411.03-0.2 410.6-0.5 410.6-1L410.6-1 410.6-17.95Q410.6-20.35 409.33-21.58 408.05-22.8 405.55-22.8L405.55-22.8Q404.35-22.8 403.2-22.38 402.05-21.95 401.08-21.18 400.1-20.4 399.4-19.3L399.4-19.3 399.4-1Q399.4-0.5 398.98-0.2 398.55 0.1 397.45 0.1L397.45 0.1ZM430.65 0.3L430.65 0.3Q427.65 0.3 425.53-1.23 423.4-2.75 422.3-5.7 421.2-8.65 421.2-12.9L421.2-12.9Q421.2-16.85 422.33-19.9 423.45-22.95 425.55-24.7 427.65-26.45 430.55-26.45L430.55-26.45Q432.55-26.45 434.53-25.8 436.5-25.15 437.9-24.1L437.9-24.1 437.9-36.5Q437.9-37.05 438.4-37.33 438.9-37.6 440-37.6L440-37.6 440.2-37.6Q441.25-37.6 441.73-37.33 442.2-37.05 442.2-36.5L442.2-36.5 442.2-7.5Q442.2-5.45 442.33-4.15 442.45-2.85 442.58-2.13 442.7-1.4 442.7-1.05L442.7-1.05Q442.7-0.8 442.4-0.6 442.1-0.4 441.65-0.28 441.2-0.15 440.7-0.08 440.2 0 439.8 0L439.8 0Q439.35 0 439.1-0.33 438.85-0.65 438.65-1.43 438.45-2.2 438.2-3.45L438.2-3.45Q437.2-2.3 435.93-1.45 434.65-0.6 433.3-0.15 431.95 0.3 430.65 0.3ZM431.95-3.4L431.95-3.4Q433.55-3.4 435.18-4.33 436.8-5.25 437.9-6.85L437.9-6.85 437.9-20.05Q436.4-21.4 434.7-22.1 433-22.8 431.4-22.8L431.4-22.8Q428.65-22.8 427.13-20.23 425.6-17.65 425.6-12.9L425.6-12.9Q425.6-7.95 427.33-5.68 429.05-3.4 431.95-3.4ZM468.6 0.45L468.6 0.45Q466.9 0.45 465.45 0.13 464-0.2 462.92-0.7 461.85-1.2 461.25-1.73 460.65-2.25 460.65-2.7L460.65-2.7Q460.65-3 460.95-3.6 461.25-4.2 461.65-4.7 462.05-5.2 462.4-5.2L462.4-5.2Q462.6-5.2 463.3-4.7 464-4.2 465.27-3.7 466.55-3.2 468.3-3.2L468.3-3.2Q470.7-3.2 471.95-4.15 473.2-5.1 473.2-6.9L473.2-6.9Q473.2-8.25 472.55-9.08 471.9-9.9 470.77-10.45 469.65-11 468.2-11.45L468.2-11.45Q466.9-11.9 465.65-12.45 464.4-13 463.4-13.85 462.4-14.7 461.82-16 461.25-17.3 461.25-19.25L461.25-19.25Q461.25-21.35 462.32-23 463.4-24.65 465.27-25.58 467.15-26.5 469.55-26.5L469.55-26.5Q470.85-26.5 472.02-26.33 473.2-26.15 474.12-25.85 475.05-25.55 475.6-25.15 476.15-24.75 476.15-24.35L476.15-24.35Q476.15-23.95 475.87-23.3 475.6-22.65 475.25-22.15 474.9-21.65 474.55-21.65L474.55-21.65Q474.35-21.65 473.2-22.3 472.05-22.95 470-22.95L470-22.95Q468.15-22.95 466.85-22.08 465.55-21.2 465.55-19.6L465.55-19.6Q465.55-18.65 465.9-18 466.25-17.35 467.1-16.82 467.95-16.3 469.45-15.8L469.45-15.8Q471.15-15.25 472.6-14.55 474.05-13.85 475.15-12.88 476.25-11.9 476.85-10.55 477.45-9.2 477.45-7.35L477.45-7.35Q477.45-5.1 476.27-3.35 475.1-1.6 473.1-0.58 471.1 0.45 468.6 0.45ZM490.34 0.3L490.34 0.3Q486.69 0.3 484.24-1.53 481.79-3.35 481.79-7.2L481.79-7.2Q481.79-9.75 482.64-11.5 483.49-13.25 485.42-14.3 487.34-15.35 490.52-15.83 493.69-16.3 498.29-16.3L498.29-16.3 498.29-18.65Q498.29-19.8 497.79-20.75 497.29-21.7 496.12-22.28 494.94-22.85 492.89-22.85L492.89-22.85Q490.64-22.85 488.92-22.35 487.19-21.85 486.12-21.35 485.04-20.85 484.69-20.85L484.69-20.85Q484.44-20.85 484.22-21.1 483.99-21.35 483.79-21.78 483.59-22.2 483.47-22.65 483.34-23.1 483.34-23.45L483.34-23.45Q483.34-23.85 484.19-24.35 485.04-24.85 486.47-25.33 487.89-25.8 489.62-26.13 491.34-26.45 493.09-26.45L493.09-26.45Q495.34-26.45 497.12-25.93 498.89-25.4 500.09-24.38 501.29-23.35 501.94-21.9 502.59-20.45 502.59-18.6L502.59-18.6 502.59-7.5Q502.59-5.45 502.72-4.15 502.84-2.85 502.97-2.13 503.09-1.4 503.09-1.05L503.09-1.05Q503.09-0.8 502.79-0.6 502.49-0.4 502.04-0.28 501.59-0.15 501.09-0.08 500.59 0 500.19 0L500.19 0Q499.74 0 499.49-0.33 499.24-0.65 499.04-1.43 498.84-2.2 498.59-3.45L498.59-3.45Q497.69-2.4 496.47-1.55 495.24-0.7 493.72-0.2 492.19 0.3 490.34 0.3ZM490.54-3.35L490.54-3.35Q492.34-3.35 493.72-3.85 495.09-4.35 496.22-5.13 497.34-5.9 498.29-6.8L498.29-6.8 498.29-12.7Q494.59-12.7 492.24-12.43 489.89-12.15 488.59-11.55 487.29-10.95 486.79-9.93 486.29-8.9 486.29-7.45L486.29-7.45Q486.29-5.45 487.37-4.4 488.44-3.35 490.54-3.35ZM514.34 0.1L513.94 0.1Q512.84 0.1 512.42-0.2 511.99-0.5 511.99-1L511.99-1 511.99-22.55 509.44-22.55Q508.49-22.55 508.49-24.05L508.49-24.05 508.49-24.65Q508.49-26.15 509.44-26.15L509.44-26.15 511.99-26.15 511.99-31.2Q511.99-33.4 512.67-34.85 513.34-36.3 514.67-37.05 515.99-37.8 517.99-37.8L517.99-37.8Q518.74-37.8 519.67-37.6 520.59-37.4 521.26-37.02 521.94-36.65 521.94-36.1L521.94-36.1Q521.94-35.95 521.92-35.55 521.89-35.15 521.82-34.7 521.74-34.25 521.57-33.93 521.39-33.6 521.14-33.6L521.14-33.6Q520.79-33.6 520.29-33.85 519.79-34.1 518.64-34.1L518.64-34.1Q517.34-34.1 516.82-33.5 516.29-32.9 516.29-31.2L516.29-31.2 516.29-26.15 520.54-26.15Q521.54-26.15 521.54-24.65L521.54-24.65 521.54-24.05Q521.54-22.55 520.54-22.55L520.54-22.55 516.29-22.55 516.29-1Q516.29-0.5 515.87-0.2 515.44 0.1 514.34 0.1L514.34 0.1ZM537.49 0.3L537.49 0.3Q531.74 0.3 528.66-2.7 525.59-5.7 525.59-12.95L525.59-12.95Q525.59-17.3 526.94-20.3 528.29-23.3 530.91-24.88 533.54-26.45 537.29-26.45L537.29-26.45Q540.69-26.45 542.96-24.98 545.24-23.5 546.36-20.6 547.49-17.7 547.49-13.5L547.49-13.5Q547.49-13.05 547.24-12.55 546.99-12.05 546.59-11.7 546.19-11.35 545.74-11.35L545.74-11.35 529.99-11.35Q530.09-7.2 531.94-5.25 533.79-3.3 537.59-3.3L537.59-3.3Q539.99-3.3 541.66-3.85 543.34-4.4 544.31-4.95 545.29-5.5 545.54-5.5L545.54-5.5Q545.89-5.5 546.16-5.08 546.44-4.65 546.64-4.1 546.84-3.55 546.84-3.15L546.84-3.15Q546.84-2.7 546.11-2.13 545.39-1.55 544.11-0.98 542.84-0.4 541.14-0.05 539.44 0.3 537.49 0.3ZM529.99-14.95L529.99-14.95 543.19-14.95Q543.19-18.9 541.54-20.88 539.89-22.85 536.84-22.85L536.84-22.85Q534.64-22.85 533.14-21.88 531.64-20.9 530.84-19.15 530.04-17.4 529.99-14.95ZM559.88 0.3L559.88 0.3Q557.88 0.3 556.56-0.45 555.24-1.2 554.56-2.68 553.88-4.15 553.88-6.3L553.88-6.3 553.88-36.5Q553.88-37.05 554.31-37.33 554.74-37.6 555.83-37.6L555.83-37.6 556.24-37.6Q557.33-37.6 557.76-37.33 558.18-37.05 558.18-36.5L558.18-36.5 558.18-6.3Q558.18-4.6 558.71-4 559.24-3.4 560.53-3.4L560.53-3.4Q561.68-3.4 562.18-3.65 562.68-3.9 563.03-3.9L563.03-3.9Q563.28-3.9 563.46-3.58 563.63-3.25 563.71-2.8 563.78-2.35 563.81-1.95 563.83-1.55 563.83-1.4L563.83-1.4Q563.83-0.9 563.16-0.5 562.49-0.1 561.56 0.1 560.63 0.3 559.88 0.3ZM571.88 10.4L571.48 10.4Q570.68 10.4 570.26 10.18 569.83 9.95 569.83 9.6L569.83 9.6Q569.83 9.5 569.86 9.38 569.88 9.25 570.08 8.75L570.08 8.75 574.98-3 574.58 0.25 565.33-24.75Q565.28-24.85 565.23-25.05 565.18-25.25 565.18-25.4L565.18-25.4Q565.18-25.8 565.71-26.03 566.23-26.25 567.33-26.25L567.33-26.25 567.58-26.25Q568.33-26.25 568.88-26.08 569.43-25.9 569.58-25.45L569.58-25.45 576.23-5.95 576.43-5.95 583.28-25.45Q583.43-25.9 583.98-26.08 584.53-26.25 585.33-26.25L585.33-26.25 585.48-26.25Q586.48-26.25 586.91-26.03 587.33-25.8 587.33-25.4L587.33-25.4Q587.33-25.25 587.31-25.1 587.28-24.95 587.18-24.7L587.18-24.7 574.23 9.35Q574.03 9.9 573.41 10.15 572.78 10.4 571.88 10.4L571.88 10.4Z" opacity="1" transform="matrix(1,0,0,1,0,0)" fill="#000000" class="slogan-text-1" data-fill-palette-color="secondary" id="text-1"></path></svg></g></svg></g></svg></g></svg></g><g transform="matrix(1,0,0,1,87.75389041267726,0)"><svg viewBox="0 0 220.0122191746455 220.0122191746455" height="220.0122191746455" width="220.0122191746455"><g><svg></svg></g><g id="icon-0"><svg viewBox="0 0 220.0122191746455 220.0122191746455" height="220.0122191746455" width="220.0122191746455"><g><path d="M0 110.006c0-60.755 49.251-110.006 110.006-110.006 60.755 0 110.006 49.251 110.006 110.006 0 60.755-49.251 110.006-110.006 110.006-60.755 0-110.006-49.251-110.006-110.006zM110.006 210.41c55.452 0 100.404-44.953 100.404-100.404 0-55.452-44.953-100.404-100.404-100.404-55.452 0-100.404 44.953-100.404 100.404 0 55.452 44.953 100.404 100.404 100.404z" data-fill-palette-color="accent" fill="#000000" stroke="transparent"></path><ellipse rx="108.90604849144952" ry="108.90604849144952" cx="110.00610958732275" cy="110.00610958732275" fill="#000000" stroke="transparent" stroke-width="0" fill-opacity="1" data-fill-palette-color="accent"></ellipse></g><g transform="matrix(1,0,0,1,53.0630839730324,63.991358625031125)"><svg viewBox="0 0 113.88605122858071 92.02950192458326" height="92.02950192458326" width="113.88605122858071"><g><svg xmlns="http://www.w3.org/2000/svg" xmlns:xlink="http://www.w3.org/1999/xlink" version="1.1" x="0" y="0" viewBox="22.892000000000003 26 62.246 50.3" enable-background="new 0 0 100 100" xml:space="preserve" height="92.02950192458326" width="113.88605122858071" class="icon-cg-0" data-fill-palette-color="quaternary" id="cg-0"><g fill="#ffffff" data-fill-palette-color="quaternary"><g fill="#ffffff" data-fill-palette-color="quaternary"><path d="M48.183 72.318v-9.152H36.865c-8.175 0-13.973-6.427-13.973-14.182v-8.942C22.893 32.147 28.9 26 36.865 26h34.231c7.895 0 14.042 6.218 14.042 14.042v8.942c0 7.755-5.938 14.182-14.042 14.182h-5.03L54.959 75.112c-0.769 0.838-1.816 1.188-2.795 1.188-0.419 0-0.979-0.141-1.467-0.28C49.3 75.322 48.183 73.994 48.183 72.318zM30.717 40.042v8.942c0 3.633 2.585 6.288 6.148 6.288h12.994c2.166 0 3.911 1.816 3.911 3.982v8.384L63.831 56.25c0.629-0.699 1.747-0.979 2.795-0.979h4.471c3.493 0 6.148-2.515 6.148-6.288v-8.942c0-3.632-2.725-6.147-6.148-6.147H36.865c-1.747 0-3.215 0.559-4.332 1.746C31.275 36.758 30.717 38.225 30.717 40.042z" fill="#ffffff" data-fill-palette-color="quaternary"></path></g></g></svg></g></svg></g></svg></g></svg></g><g></g></svg></g><defs></defs></svg><rect width="231.62548865592134" height="247.2" fill="none" stroke="none" visibility="hidden"></rect></g></svg></g></svg>